<svg width="21" height="21" viewBox="0 0 21 21" fill="none" xmlns="http://www.w3.org/2000/svg">
<path d="M11.4825 10.0262L19.7215 1.83225C20.1165 1.44125 20.1165 0.80825 19.7215 0.41825C19.3275 0.0272502 18.6875 0.0272502 18.2935 0.41825L10.0615 8.60525L1.7535 0.29625C1.3595 -0.09875 0.7195 -0.09875 0.3255 0.29625C-0.0684998 0.69225 -0.0684998 1.33325 0.3255 1.72825L8.6275 10.0312L0.2955 18.3173C-0.0985 18.7083 -0.0985 19.3413 0.2955 19.7313C0.6895 20.1223 1.3295 20.1223 1.7235 19.7313L10.0485 11.4523L18.3235 19.7283C18.7175 20.1233 19.3575 20.1233 19.7515 19.7283C20.1455 19.3323 20.1455 18.6913 19.7515 18.2963L11.4825 10.0262Z" fill="#114FEE"/>
</svg>
