<svg width="20" height="20" viewBox="0 0 20 20" fill="none" xmlns="http://www.w3.org/2000/svg">
<path d="M10.8333 9.16666H5.83332C5.61231 9.16666 5.40035 9.25445 5.24407 9.41073C5.08779 9.56701 4.99999 9.77898 4.99999 9.99999C4.99999 10.221 5.08779 10.433 5.24407 10.5892C5.40035 10.7455 5.61231 10.8333 5.83332 10.8333H10.8333C11.0543 10.8333 11.2663 10.7455 11.4226 10.5892C11.5789 10.433 11.6667 10.221 11.6667 9.99999C11.6667 9.77898 11.5789 9.56701 11.4226 9.41073C11.2663 9.25445 11.0543 9.16666 10.8333 9.16666ZM14.1667 5.83332H5.83332C5.61231 5.83332 5.40035 5.92112 5.24407 6.0774C5.08779 6.23368 4.99999 6.44564 4.99999 6.66666C4.99999 6.88767 5.08779 7.09963 5.24407 7.25591C5.40035 7.41219 5.61231 7.49999 5.83332 7.49999H14.1667C14.3877 7.49999 14.5996 7.41219 14.7559 7.25591C14.9122 7.09963 15 6.88767 15 6.66666C15 6.44564 14.9122 6.23368 14.7559 6.0774C14.5996 5.92112 14.3877 5.83332 14.1667 5.83332ZM15.8333 1.66666H4.16666C3.50362 1.66666 2.86773 1.93005 2.39889 2.39889C1.93005 2.86773 1.66666 3.50362 1.66666 4.16666V12.5C1.66666 13.163 1.93005 13.7989 2.39889 14.2678C2.86773 14.7366 3.50362 15 4.16666 15H13.825L16.9083 18.0917C16.9862 18.1689 17.0785 18.23 17.1801 18.2715C17.2816 18.3129 17.3903 18.334 17.5 18.3333C17.6093 18.3361 17.7178 18.3133 17.8167 18.2667C17.9688 18.2041 18.0991 18.098 18.1911 17.9615C18.283 17.8251 18.3325 17.6645 18.3333 17.5V4.16666C18.3333 3.50362 18.0699 2.86773 17.6011 2.39889C17.1322 1.93005 16.4964 1.66666 15.8333 1.66666ZM16.6667 15.4917L14.7583 13.575C14.6805 13.4978 14.5881 13.4367 14.4866 13.3952C14.385 13.3537 14.2763 13.3327 14.1667 13.3333H4.16666C3.94564 13.3333 3.73368 13.2455 3.5774 13.0892C3.42112 12.933 3.33332 12.721 3.33332 12.5V4.16666C3.33332 3.94564 3.42112 3.73368 3.5774 3.5774C3.73368 3.42112 3.94564 3.33332 4.16666 3.33332H15.8333C16.0543 3.33332 16.2663 3.42112 16.4226 3.5774C16.5789 3.73368 16.6667 3.94564 16.6667 4.16666V15.4917Z" fill="#444444"/>
</svg>
