<svg width="20" height="20" viewBox="0 0 20 20" fill="none" xmlns="http://www.w3.org/2000/svg">
<path d="M18.1124 10.366C20.092 8.36441 20.092 5.10761 18.1124 3.10601C17.1524 2.13481 15.8752 1.60001 14.5168 1.60001C13.1584 1.60001 11.8804 2.13481 10.92 3.10601L9.99999 4.03601L9.07999 3.10601C8.11959 2.13481 6.84239 1.60001 5.48359 1.60001C4.12519 1.60001 2.84799 2.13481 1.88759 3.10601C-0.0920069 5.10761 -0.0920069 8.36441 1.88759 10.366L9.99999 18.5688L18.1124 10.366ZM2.45639 3.66841C3.26519 2.85041 4.34079 2.40001 5.48359 2.40001C6.62679 2.40001 7.70239 2.85041 8.51119 3.66841L9.99999 5.17401L11.4888 3.66841C12.2976 2.85041 13.3732 2.40001 14.5164 2.40001C15.6596 2.40001 16.7348 2.85041 17.5436 3.66841C19.2168 5.36001 19.2168 8.11201 17.5436 9.80361L9.99999 17.4312L2.45639 9.80361C0.783193 8.11201 0.783193 5.35961 2.45639 3.66841Z" fill="#444444"/>
</svg>
