<svg width="52" height="69" viewBox="0 0 52 69" fill="none" xmlns="http://www.w3.org/2000/svg">
<path fill-rule="evenodd" clip-rule="evenodd" d="M26 5.20001C14.5132 5.20001 5.20001 14.5132 5.20001 26C5.20001 37.4868 14.5132 46.8 26 46.8C37.4868 46.8 46.8 37.4868 46.8 26C46.8 14.5132 37.4868 5.20001 26 5.20001ZM30.0439 32.5416H14.8685L21.9561 19.4601H37.1315L30.0439 32.5416Z" fill="#114FEE"/>
<path d="M2.892 66L6.636 57.6H8.556L12.312 66H10.272L7.2 58.584H7.968L4.884 66H2.892ZM4.764 64.2L5.28 62.724H9.6L10.128 64.2H4.764ZM13.0515 66V59.544H14.9235V66H13.0515ZM13.9875 58.644C13.6435 58.644 13.3635 58.544 13.1475 58.344C12.9315 58.144 12.8235 57.896 12.8235 57.6C12.8235 57.304 12.9315 57.056 13.1475 56.856C13.3635 56.656 13.6435 56.556 13.9875 56.556C14.3315 56.556 14.6115 56.652 14.8275 56.844C15.0435 57.028 15.1515 57.268 15.1515 57.564C15.1515 57.876 15.0435 58.136 14.8275 58.344C14.6195 58.544 14.3395 58.644 13.9875 58.644ZM16.6609 66V59.544H18.4489V61.368L18.1969 60.84C18.3889 60.384 18.6969 60.04 19.1209 59.808C19.5449 59.568 20.0609 59.448 20.6689 59.448V61.176C20.5889 61.168 20.5169 61.164 20.4529 61.164C20.3889 61.156 20.3209 61.152 20.2489 61.152C19.7369 61.152 19.3209 61.3 19.0009 61.596C18.6889 61.884 18.5329 62.336 18.5329 62.952V66H16.6609ZM24.6154 66.144C23.9434 66.144 23.2994 66.056 22.6834 65.88C22.0674 65.696 21.5714 65.46 21.1954 65.172L21.8554 63.708C22.2154 63.964 22.6394 64.176 23.1274 64.344C23.6234 64.504 24.1234 64.584 24.6274 64.584C25.0114 64.584 25.3194 64.548 25.5514 64.476C25.7914 64.396 25.9674 64.288 26.0794 64.152C26.1914 64.016 26.2474 63.86 26.2474 63.684C26.2474 63.46 26.1594 63.284 25.9834 63.156C25.8074 63.02 25.5754 62.912 25.2874 62.832C24.9994 62.744 24.6794 62.664 24.3274 62.592C23.9834 62.512 23.6354 62.416 23.2834 62.304C22.9394 62.192 22.6234 62.048 22.3354 61.872C22.0474 61.696 21.8114 61.464 21.6274 61.176C21.4514 60.888 21.3634 60.52 21.3634 60.072C21.3634 59.592 21.4914 59.156 21.7474 58.764C22.0114 58.364 22.4034 58.048 22.9234 57.816C23.4514 57.576 24.1114 57.456 24.9034 57.456C25.4314 57.456 25.9514 57.52 26.4634 57.648C26.9754 57.768 27.4274 57.952 27.8194 58.2L27.2194 59.676C26.8274 59.452 26.4354 59.288 26.0434 59.184C25.6514 59.072 25.2674 59.016 24.8914 59.016C24.5154 59.016 24.2074 59.06 23.9674 59.148C23.7274 59.236 23.5554 59.352 23.4514 59.496C23.3474 59.632 23.2954 59.792 23.2954 59.976C23.2954 60.192 23.3834 60.368 23.5594 60.504C23.7354 60.632 23.9674 60.736 24.2554 60.816C24.5434 60.896 24.8594 60.976 25.2034 61.056C25.5554 61.136 25.9034 61.228 26.2474 61.332C26.5994 61.436 26.9194 61.576 27.2074 61.752C27.4954 61.928 27.7274 62.16 27.9034 62.448C28.0874 62.736 28.1794 63.1 28.1794 63.54C28.1794 64.012 28.0474 64.444 27.7834 64.836C27.5194 65.228 27.1234 65.544 26.5954 65.784C26.0754 66.024 25.4154 66.144 24.6154 66.144ZM33.2997 59.448C33.8117 59.448 34.2677 59.552 34.6677 59.76C35.0757 59.96 35.3957 60.272 35.6277 60.696C35.8597 61.112 35.9757 61.648 35.9757 62.304V66H34.1037V62.592C34.1037 62.072 33.9877 61.688 33.7557 61.44C33.5317 61.192 33.2117 61.068 32.7957 61.068C32.4997 61.068 32.2317 61.132 31.9917 61.26C31.7597 61.38 31.5757 61.568 31.4397 61.824C31.3117 62.08 31.2477 62.408 31.2477 62.808V66H29.3757V57.096H31.2477V61.332L30.8277 60.792C31.0597 60.36 31.3917 60.028 31.8237 59.796C32.2557 59.564 32.7477 59.448 33.2997 59.448ZM40.7915 66.096C40.1035 66.096 39.4915 65.952 38.9555 65.664C38.4275 65.376 38.0075 64.984 37.6955 64.488C37.3915 63.984 37.2395 63.412 37.2395 62.772C37.2395 62.124 37.3915 61.552 37.6955 61.056C38.0075 60.552 38.4275 60.16 38.9555 59.88C39.4915 59.592 40.1035 59.448 40.7915 59.448C41.4715 59.448 42.0795 59.592 42.6155 59.88C43.1515 60.16 43.5715 60.548 43.8755 61.044C44.1795 61.54 44.3315 62.116 44.3315 62.772C44.3315 63.412 44.1795 63.984 43.8755 64.488C43.5715 64.984 43.1515 65.376 42.6155 65.664C42.0795 65.952 41.4715 66.096 40.7915 66.096ZM40.7915 64.56C41.1035 64.56 41.3835 64.488 41.6315 64.344C41.8795 64.2 42.0755 63.996 42.2195 63.732C42.3635 63.46 42.4355 63.14 42.4355 62.772C42.4355 62.396 42.3635 62.076 42.2195 61.812C42.0755 61.548 41.8795 61.344 41.6315 61.2C41.3835 61.056 41.1035 60.984 40.7915 60.984C40.4795 60.984 40.1995 61.056 39.9515 61.2C39.7035 61.344 39.5035 61.548 39.3515 61.812C39.2075 62.076 39.1355 62.396 39.1355 62.772C39.1355 63.14 39.2075 63.46 39.3515 63.732C39.5035 63.996 39.7035 64.2 39.9515 64.344C40.1995 64.488 40.4795 64.56 40.7915 64.56ZM48.2228 66.096C47.4628 66.096 46.8708 65.904 46.4468 65.52C46.0228 65.128 45.8108 64.548 45.8108 63.78V58.116H47.6828V63.756C47.6828 64.028 47.7548 64.24 47.8988 64.392C48.0428 64.536 48.2388 64.608 48.4868 64.608C48.7828 64.608 49.0348 64.528 49.2428 64.368L49.7468 65.688C49.5548 65.824 49.3228 65.928 49.0508 66C48.7868 66.064 48.5108 66.096 48.2228 66.096ZM44.8148 61.128V59.688H49.2908V61.128H44.8148Z" fill="#114FEE"/>
</svg>
