<svg width="52" height="69" viewBox="0 0 52 69" fill="none" xmlns="http://www.w3.org/2000/svg">
<path fill-rule="evenodd" clip-rule="evenodd" d="M26 5.20001C14.5132 5.20001 5.20001 14.5132 5.20001 26C5.20001 37.4868 14.5132 46.8 26 46.8C37.4868 46.8 46.8 37.4868 46.8 26C46.8 14.5132 37.4868 5.20001 26 5.20001ZM30.0439 32.5416H14.8685L21.9561 19.4601H37.1315L30.0439 32.5416Z" fill="#114FEE"/>
<path d="M11.016 66.144C10.368 66.144 9.764 66.04 9.204 65.832C8.652 65.616 8.172 65.312 7.764 64.92C7.356 64.528 7.036 64.068 6.804 63.54C6.58 63.012 6.468 62.432 6.468 61.8C6.468 61.168 6.58 60.588 6.804 60.06C7.036 59.532 7.356 59.072 7.764 58.68C8.18 58.288 8.664 57.988 9.216 57.78C9.768 57.564 10.372 57.456 11.028 57.456C11.756 57.456 12.412 57.584 12.996 57.84C13.588 58.088 14.084 58.456 14.484 58.944L13.236 60.096C12.948 59.768 12.628 59.524 12.276 59.364C11.924 59.196 11.54 59.112 11.124 59.112C10.732 59.112 10.372 59.176 10.044 59.304C9.716 59.432 9.432 59.616 9.192 59.856C8.952 60.096 8.764 60.38 8.628 60.708C8.5 61.036 8.436 61.4 8.436 61.8C8.436 62.2 8.5 62.564 8.628 62.892C8.764 63.22 8.952 63.504 9.192 63.744C9.432 63.984 9.716 64.168 10.044 64.296C10.372 64.424 10.732 64.488 11.124 64.488C11.54 64.488 11.924 64.408 12.276 64.248C12.628 64.08 12.948 63.828 13.236 63.492L14.484 64.644C14.084 65.132 13.588 65.504 12.996 65.76C12.412 66.016 11.752 66.144 11.016 66.144ZM19.4359 66V64.74L19.3159 64.464V62.208C19.3159 61.808 19.1919 61.496 18.9439 61.272C18.7039 61.048 18.3319 60.936 17.8279 60.936C17.4839 60.936 17.1439 60.992 16.8079 61.104C16.4799 61.208 16.1999 61.352 15.9679 61.536L15.2959 60.228C15.6479 59.98 16.0719 59.788 16.5679 59.652C17.0639 59.516 17.5679 59.448 18.0799 59.448C19.0639 59.448 19.8279 59.68 20.3719 60.144C20.9159 60.608 21.1879 61.332 21.1879 62.316V66H19.4359ZM17.4679 66.096C16.9639 66.096 16.5319 66.012 16.1719 65.844C15.8119 65.668 15.5359 65.432 15.3439 65.136C15.1519 64.84 15.0559 64.508 15.0559 64.14C15.0559 63.756 15.1479 63.42 15.3319 63.132C15.5239 62.844 15.8239 62.62 16.2319 62.46C16.6399 62.292 17.1719 62.208 17.8279 62.208H19.5439V63.3H18.0319C17.5919 63.3 17.2879 63.372 17.1199 63.516C16.9599 63.66 16.8799 63.84 16.8799 64.056C16.8799 64.296 16.9719 64.488 17.1559 64.632C17.3479 64.768 17.6079 64.836 17.9359 64.836C18.2479 64.836 18.5279 64.764 18.7759 64.62C19.0239 64.468 19.2039 64.248 19.3159 63.96L19.6039 64.824C19.4679 65.24 19.2199 65.556 18.8599 65.772C18.4999 65.988 18.0359 66.096 17.4679 66.096ZM21.9981 65.988L22.0941 64.452C22.1421 64.46 22.1901 64.468 22.2381 64.476C22.2861 64.476 22.3301 64.476 22.3701 64.476C22.5941 64.476 22.7701 64.412 22.8981 64.284C23.0261 64.156 23.1221 63.984 23.1861 63.768C23.2501 63.544 23.2941 63.292 23.3181 63.012C23.3501 62.732 23.3741 62.44 23.3901 62.136L23.4861 59.544H29.0061V66H27.1341V60.624L27.5541 61.08H24.7221L25.1181 60.6L25.0341 62.22C25.0101 62.796 24.9621 63.324 24.8901 63.804C24.8261 64.284 24.7181 64.7 24.5661 65.052C24.4141 65.396 24.2101 65.664 23.9541 65.856C23.6981 66.04 23.3701 66.132 22.9701 66.132C22.8261 66.132 22.6741 66.12 22.5141 66.096C22.3541 66.072 22.1821 66.036 21.9981 65.988ZM30.8063 66V59.544H32.6663V61.92H34.5623V63.54H32.6663V66H30.8063ZM36.9143 66.096C36.2503 66.096 35.6583 65.952 35.1383 65.664C34.6183 65.376 34.2103 64.984 33.9143 64.488C33.6183 63.984 33.4703 63.412 33.4703 62.772C33.4703 62.124 33.6183 61.552 33.9143 61.056C34.2103 60.552 34.6183 60.16 35.1383 59.88C35.6583 59.592 36.2503 59.448 36.9143 59.448C37.5783 59.448 38.1663 59.592 38.6783 59.88C39.1983 60.16 39.6063 60.552 39.9023 61.056C40.1983 61.552 40.3463 62.124 40.3463 62.772C40.3463 63.412 40.1983 63.984 39.9023 64.488C39.6063 64.992 39.1983 65.388 38.6783 65.676C38.1663 65.956 37.5783 66.096 36.9143 66.096ZM36.9143 64.56C37.2183 64.56 37.4863 64.488 37.7183 64.344C37.9583 64.2 38.1463 63.996 38.2823 63.732C38.4263 63.46 38.4983 63.14 38.4983 62.772C38.4983 62.396 38.4263 62.076 38.2823 61.812C38.1463 61.548 37.9583 61.344 37.7183 61.2C37.4863 61.056 37.2183 60.984 36.9143 60.984C36.6183 60.984 36.3463 61.056 36.0983 61.2C35.8583 61.344 35.6663 61.548 35.5223 61.812C35.3863 62.076 35.3183 62.396 35.3183 62.772C35.3183 63.14 35.3863 63.46 35.5223 63.732C35.6663 63.996 35.8583 64.2 36.0983 64.344C36.3463 64.488 36.6183 64.56 36.9143 64.56ZM42.7917 66V60.648L43.2117 61.08H40.6077V59.544H46.8357V61.08H44.2317L44.6517 60.648V66H42.7917Z" fill="#114FEE"/>
</svg>
