<svg width="27" height="27" viewBox="0 0 27 27" fill="none" xmlns="http://www.w3.org/2000/svg">
<path d="M13.5 13.5C14.6681 13.5 15.8101 13.1536 16.7813 12.5046C17.7526 11.8556 18.5096 10.9332 18.9567 9.85398C19.4037 8.77475 19.5207 7.5872 19.2928 6.4415C19.0649 5.2958 18.5024 4.24341 17.6763 3.4174C16.8503 2.5914 15.798 2.02888 14.6523 1.80099C13.5066 1.5731 12.319 1.69006 11.2398 2.13709C10.1605 2.58412 9.23812 3.34114 8.58913 4.31242C7.94015 5.28369 7.59375 6.42561 7.59375 7.59375C7.59375 9.16019 8.21601 10.6625 9.32365 11.7701C10.4313 12.8777 11.9336 13.5 13.5 13.5ZM13.5 3.375C14.3344 3.375 15.15 3.62243 15.8438 4.08599C16.5376 4.54955 17.0783 5.20843 17.3976 5.97931C17.7169 6.75018 17.8005 7.59843 17.6377 8.41679C17.4749 9.23515 17.0731 9.98686 16.4831 10.5769C15.8931 11.1669 15.1414 11.5687 14.323 11.7314C13.5047 11.8942 12.6564 11.8107 11.8856 11.4914C11.1147 11.1721 10.4558 10.6313 9.99224 9.93756C9.52868 9.24379 9.28125 8.42814 9.28125 7.59375C9.28125 6.47487 9.72572 5.40182 10.5169 4.61065C11.3081 3.81948 12.3811 3.375 13.5 3.375Z" fill="#686868"/>
<path d="M14.3438 15.1875H12.6562C10.1947 15.1875 7.83399 16.1653 6.09342 17.9059C4.35284 19.6465 3.375 22.0072 3.375 24.4688C3.375 24.6925 3.46389 24.9071 3.62213 25.0654C3.78036 25.2236 3.99497 25.3125 4.21875 25.3125H22.7812C23.005 25.3125 23.2196 25.2236 23.3779 25.0654C23.5361 24.9071 23.625 24.6925 23.625 24.4688C23.625 22.0072 22.6472 19.6465 20.9066 17.9059C19.166 16.1653 16.8053 15.1875 14.3438 15.1875ZM5.11312 23.625C5.3206 21.7693 6.20453 20.0551 7.59601 18.8099C8.9875 17.5647 10.789 16.8759 12.6562 16.875H14.3438C16.211 16.8759 18.0125 17.5647 19.404 18.8099C20.7955 20.0551 21.6794 21.7693 21.8869 23.625H5.11312Z" fill="#686868"/>
</svg>
