<svg width="15" height="15" viewBox="0 0 15 15" fill="none" xmlns="http://www.w3.org/2000/svg">
<g clip-path="url(#clip0_27_158)">
<path d="M13.7858 3.86223C13.7781 3.45725 13.7707 3.07467 13.7707 2.70455C13.7707 2.41459 13.5357 2.17951 13.2457 2.17951C11.0003 2.17951 9.29069 1.53421 7.86567 0.148665C7.66181 -0.0495899 7.33741 -0.0495199 7.13362 0.148665C5.70874 1.53421 3.99942 2.17951 1.75415 2.17951C1.46419 2.17951 1.22911 2.41459 1.22911 2.70455C1.22911 3.07474 1.22183 3.45746 1.21406 3.86251C1.14209 7.6313 1.04353 12.7929 7.32768 14.9711C7.3834 14.9904 7.44151 15 7.49961 15C7.55771 15 7.61589 14.9904 7.67154 14.9711C13.9562 12.7928 13.8578 7.63109 13.7858 3.86223ZM7.49968 13.9178C2.11019 11.96 2.19168 7.67114 2.264 3.88253C2.26834 3.65515 2.27254 3.43478 2.27548 3.21874C4.37843 3.12997 6.06009 2.49272 7.49968 1.23864C8.93941 2.49272 10.6213 3.13004 12.7244 3.21874C12.7274 3.43471 12.7316 3.65494 12.7359 3.88218C12.8082 7.67093 12.8896 11.9599 7.49968 13.9178Z" fill="white"/>
<path d="M9.30776 5.67609L6.77365 8.21006L5.69228 7.12869C5.48723 6.92372 5.15478 6.92372 4.9498 7.12869C4.74476 7.33381 4.74476 7.66619 4.9498 7.87124L6.40241 9.32384C6.5049 9.42633 6.63931 9.47758 6.77365 9.47758C6.90799 9.47758 7.0424 9.42633 7.14489 9.32384L10.0502 6.41863C10.2553 6.21359 10.2553 5.88113 10.0502 5.67616C9.84526 5.47111 9.51281 5.47104 9.30776 5.67609Z" fill="white"/>
</g>
<defs>
<clipPath id="clip0_27_158">
<rect width="15" height="15" fill="white"/>
</clipPath>
</defs>
</svg>
