<svg width="15" height="15" viewBox="0 0 15 15" fill="none" xmlns="http://www.w3.org/2000/svg">
<path fill-rule="evenodd" clip-rule="evenodd" d="M7.5 1.25C10.9518 1.25 13.75 4.04822 13.75 7.5C13.75 10.9518 10.9518 13.75 7.5 13.75C4.04822 13.75 1.25 10.9518 1.25 7.5C1.25 4.04822 4.04822 1.25 7.5 1.25ZM7.5 2.5C4.73858 2.5 2.5 4.73858 2.5 7.5C2.5 10.2614 4.73858 12.5 7.5 12.5C10.2614 12.5 12.5 10.2614 12.5 7.5C12.5 4.73858 10.2614 2.5 7.5 2.5ZM7.5 6.25C7.84518 6.25 8.125 6.52982 8.125 6.875V10.625C8.125 10.9702 7.84518 11.25 7.5 11.25C7.15482 11.25 6.875 10.9702 6.875 10.625V6.875C6.875 6.52982 7.15482 6.25 7.5 6.25ZM7.5 3.75C7.84518 3.75 8.125 4.02982 8.125 4.375C8.125 4.72018 7.84518 5 7.5 5C7.15482 5 6.875 4.72018 6.875 4.375C6.875 4.02982 7.15482 3.75 7.5 3.75Z" fill="#B3B3B3"/>
</svg>
