<svg width="27" height="27" viewBox="0 0 27 27" fill="none" xmlns="http://www.w3.org/2000/svg">
<path d="M18.0533 14.448C13.4988 14.448 9.79346 18.1531 9.79346 22.7076C9.79346 22.9303 9.97399 23.1111 10.197 23.1111H25.9096C26.1323 23.1111 26.3131 22.9303 26.3131 22.7076C26.3131 18.1534 22.6075 14.448 18.0533 14.448ZM10.6114 22.3043C10.8218 18.3821 14.0792 15.2551 18.0533 15.2551C22.0274 15.2551 25.2848 18.3821 25.4952 22.3043H10.6114Z" fill="#686868"/>
<path d="M17.8918 13.3449C20.5178 13.3449 22.654 11.2086 22.654 8.5827C22.654 5.95677 20.5178 3.82051 17.8918 3.82051C15.2659 3.82051 13.1296 5.95677 13.1296 8.5827C13.1296 11.2086 15.2659 13.3449 17.8918 13.3449ZM17.8918 4.62766C20.0725 4.62766 21.8469 6.40178 21.8469 8.5827C21.8469 10.7634 20.0725 12.5377 17.8918 12.5377C15.7112 12.5377 13.9368 10.7636 13.9368 8.5827C13.9368 6.40178 15.7112 4.62766 17.8918 4.62766Z" fill="#686868"/>
<path d="M6.83388 17.273C7.80865 17.273 8.76055 17.5327 9.58735 18.0237C9.77918 18.1375 10.0267 18.0743 10.1405 17.8827C10.2543 17.6911 10.1911 17.4436 9.9998 17.3295C9.04844 16.7645 7.95367 16.4659 6.83415 16.4659C3.39192 16.4659 0.591919 19.2661 0.591919 22.7078C0.591919 22.9306 0.772452 23.1114 0.995494 23.1114H8.25985C8.48289 23.1114 8.66343 22.9306 8.66343 22.7078C8.66343 22.4851 8.48289 22.3043 8.25985 22.3043H1.41387C1.62104 19.4951 3.9728 17.273 6.83388 17.273Z" fill="#686868"/>
<path d="M6.7532 15.2282C8.77081 15.2282 10.4123 13.5868 10.4123 11.5692C10.4123 9.55155 8.77081 7.91007 6.7532 7.91007C4.73559 7.91007 3.09412 9.55155 3.09412 11.5692C3.09412 13.5868 4.73559 15.2282 6.7532 15.2282ZM6.7532 8.71722C8.3258 8.71722 9.60513 9.99656 9.60513 11.5692C9.60513 13.1418 8.3258 14.4211 6.7532 14.4211C5.1806 14.4211 3.90127 13.1418 3.90127 11.5692C3.90127 9.99656 5.1806 8.71722 6.7532 8.71722Z" fill="#686868"/>
</svg>
